<svg id="Capa_1" enable-background="new 0 0 512 512" height="512" viewBox="0 0 512 512" width="512" xmlns="http://www.w3.org/2000/svg"><g><path d="m500.291 41.646c-.001-10.612-10.847-17.859-20.678-13.695-97.955 41.506-143.814 20.386-192.368-1.972-51.546-23.738-104.946-48.303-211.005 10.138.281 1.133.506 2.289.656 3.471l34.269 269.836c79.071-37.548 118.137-19.673 163.684 1.181 69.572 31.855 122.534 41.84 216.391 2.072 5.5-2.331 9.072-7.724 9.072-13.697z" fill="#ff7149"/><path d="m500.31 298.98c0 5.97-3.57 11.37-9.07 13.7-93.86 39.76-146.82 29.78-216.39-2.07-12.78-5.85-25.06-11.47-37.85-15.69v-288.83c17.95 5.02 34.18 12.49 50.24 19.89 48.56 22.36 94.42 43.48 192.37 1.97 9.83-4.16 20.68 3.08 20.68 13.7z" fill="#ff4e51"/><path d="m81.815 38.963 57.912 456.006c.695 5.472-3.209 10.46-8.688 11.099l-50.232 5.863c-5.401.63-10.302-3.206-10.987-8.6l-57.848-455.498c-2.467-19.424 11.392-37.129 30.841-39.399 19.172-2.238 36.57 11.381 39.002 30.529z" fill="#edeff3"/></g></svg>